<?xml version="1.0" encoding="UTF-8" standalone="no"?>
<svg
   xmlns:dc="http://purl.org/dc/elements/1.1/"
   xmlns:cc="http://creativecommons.org/ns#"
   xmlns:rdf="http://www.w3.org/1999/02/22-rdf-syntax-ns#"
   xmlns:svg="http://www.w3.org/2000/svg"
   xmlns="http://www.w3.org/2000/svg"
   xmlns:sodipodi="http://sodipodi.sourceforge.net/DTD/sodipodi-0.dtd"
   xmlns:inkscape="http://www.inkscape.org/namespaces/inkscape"
   sodipodi:docname="plus.svg"
   inkscape:version="1.0 (4035a4fb49, 2020-05-01)"
   id="svg8"
   version="1.1"
   viewBox="0 0 71.954498 71.954231"
   height="71.954231mm"
   width="71.954498mm">
  <defs
     id="defs2">
	

		
		
		
	</defs>
  <sodipodi:namedview
     inkscape:window-maximized="0"
     inkscape:window-y="0"
     inkscape:window-x="208"
     inkscape:window-height="1032"
     inkscape:window-width="1274"
     fit-margin-bottom="0"
     fit-margin-right="0"
     fit-margin-left="0"
     fit-margin-top="0"
     showgrid="false"
     inkscape:document-rotation="0"
     inkscape:current-layer="layer1"
     inkscape:document-units="mm"
     inkscape:cy="167.97867"
     inkscape:cx="158.92689"
     inkscape:zoom="1.979899"
     inkscape:pageshadow="2"
     inkscape:pageopacity="0.0"
     borderopacity="1.0"
     bordercolor="#666666"
     pagecolor="#ffffff"
     id="base" />
  <metadata
     id="metadata5">
    <rdf:RDF>
      <cc:Work
         rdf:about="">
        <dc:format>image/svg+xml</dc:format>
        <dc:type
           rdf:resource="http://purl.org/dc/dcmitype/StillImage" />
        <dc:title></dc:title>
      </cc:Work>
    </rdf:RDF>
  </metadata>
  <g
     transform="translate(-125.04061,165.24497)"
     id="layer1"
     inkscape:groupmode="layer"
     inkscape:label="Layer 1">
    <path
       id="path842"
       d="m 161.01786,-93.29074 c 19.86941,0 35.97724,-16.10757 35.97724,-35.97725 0,-19.86968 -16.10783,-35.97698 -35.97724,-35.97698 -19.86942,0 -35.97725,16.10757 -35.97725,35.97725 0,19.86968 16.10757,35.97698 35.97725,35.97698 z m 0,-66.19796 c 16.66319,0 30.22071,13.55752 30.22071,30.22071 0,16.6632 -13.55752,30.220711 -30.22071,30.220711 -16.6632,0 -30.22071,-13.557511 -30.22071,-30.220711 0,-16.66319 13.55593,-30.22071 30.22071,-30.22071 z"
       style="fill:#010002;stroke-width:0.264583" />
    <path
       id="path844"
       d="m 151.12461,-111.7636 c 1.98728,0 3.5978,-1.61026 3.5978,-3.59781 v -27.34257 c 0,-1.98728 -1.61025,-3.5978 -3.5978,-3.5978 -1.98729,0 -3.59781,1.61025 -3.59781,3.5978 v 27.34257 c 0,1.98755 1.61026,3.59781 3.59781,3.59781 z"
       style="fill:#010002;stroke-width:0.264583" />
    <g
       transform="matrix(0.26458333,0,0,0.26458333,125.04061,-165.24497)"
       id="g852">
</g>
    <g
       transform="matrix(0.26458333,0,0,0.26458333,125.04061,-165.24497)"
       id="g854">
</g>
    <g
       transform="matrix(0.26458333,0,0,0.26458333,125.04061,-165.24497)"
       id="g856">
</g>
    <g
       transform="matrix(0.26458333,0,0,0.26458333,125.04061,-165.24497)"
       id="g858">
</g>
    <g
       transform="matrix(0.26458333,0,0,0.26458333,125.04061,-165.24497)"
       id="g860">
</g>
    <g
       transform="matrix(0.26458333,0,0,0.26458333,125.04061,-165.24497)"
       id="g862">
</g>
    <g
       transform="matrix(0.26458333,0,0,0.26458333,125.04061,-165.24497)"
       id="g864">
</g>
    <g
       transform="matrix(0.26458333,0,0,0.26458333,125.04061,-165.24497)"
       id="g866">
</g>
    <g
       transform="matrix(0.26458333,0,0,0.26458333,125.04061,-165.24497)"
       id="g868">
</g>
    <g
       transform="matrix(0.26458333,0,0,0.26458333,125.04061,-165.24497)"
       id="g870">
</g>
    <g
       transform="matrix(0.26458333,0,0,0.26458333,125.04061,-165.24497)"
       id="g872">
</g>
    <g
       transform="matrix(0.26458333,0,0,0.26458333,125.04061,-165.24497)"
       id="g874">
</g>
    <g
       transform="matrix(0.26458333,0,0,0.26458333,125.04061,-165.24497)"
       id="g876">
</g>
    <g
       transform="matrix(0.26458333,0,0,0.26458333,125.04061,-165.24497)"
       id="g878">
</g>
    <g
       transform="matrix(0.26458333,0,0,0.26458333,125.04061,-165.24497)"
       id="g880">
</g>
    <path
       style="fill:#010002;stroke-width:0.264583"
       d="m 148.81759,-144.83851 c -1.06567,1.67738 -0.57015,3.90026 1.10744,4.96608 l 23.07884,14.6623 c 1.67737,1.06568 3.90025,0.57015 4.96607,-1.10744 1.06567,-1.6774 0.57016,-3.90026 -1.10744,-4.96608 l -23.07884,-14.66231 c -1.67761,-1.06581 -3.90027,-0.57015 -4.96608,1.10744 z"
       id="path844-3" />
    <path
       id="path844-3-4"
       d="m 178.75572,-129.55647 c -0.93716,-1.75244 -3.1166,-2.41327 -4.86928,-1.47598 l -24.11136,12.89412 c -1.75243,0.93716 -2.41327,3.1166 -1.47597,4.86928 0.93717,1.75245 3.1166,2.41328 4.86928,1.47598 l 24.11137,-12.89414 c 1.75267,-0.93727 2.41327,-3.11661 1.47598,-4.86928 z"
       style="fill:#010002;stroke-width:0.264583" />
  </g>
</svg>
