<?xml version="1.0" encoding="UTF-8" standalone="no"?>
<svg
   xmlns:dc="http://purl.org/dc/elements/1.1/"
   xmlns:cc="http://creativecommons.org/ns#"
   xmlns:rdf="http://www.w3.org/1999/02/22-rdf-syntax-ns#"
   xmlns:svg="http://www.w3.org/2000/svg"
   xmlns="http://www.w3.org/2000/svg"
   xmlns:sodipodi="http://sodipodi.sourceforge.net/DTD/sodipodi-0.dtd"
   xmlns:inkscape="http://www.inkscape.org/namespaces/inkscape"
   inkscape:version="1.0 (4035a4fb49, 2020-05-01)"
   sodipodi:docname="settings.svg"
   id="svg11"
   version="1.1"
   viewBox="0 0 49.621376 50.753281"
   height="50.753281"
   width="49.621376">
  <metadata
     id="metadata17">
    <rdf:RDF>
      <cc:Work
         rdf:about="">
        <dc:format>image/svg+xml</dc:format>
        <dc:type
           rdf:resource="http://purl.org/dc/dcmitype/StillImage" />
        <dc:title>234B0A08-5969-422F-BD0D-03E94F97F0DE</dc:title>
      </cc:Work>
    </rdf:RDF>
  </metadata>
  <defs
     id="defs15" />
  <sodipodi:namedview
     inkscape:current-layer="svg11"
     inkscape:window-maximized="0"
     inkscape:window-y="0"
     inkscape:window-x="0"
     inkscape:cy="54.749192"
     inkscape:cx="9.3148243"
     inkscape:zoom="4.8863636"
     fit-margin-bottom="0"
     fit-margin-right="0"
     fit-margin-left="0"
     fit-margin-top="0"
     showgrid="false"
     id="namedview13"
     inkscape:window-height="873"
     inkscape:window-width="1797"
     inkscape:pageshadow="2"
     inkscape:pageopacity="0"
     guidetolerance="10"
     gridtolerance="10"
     objecttolerance="10"
     borderopacity="1"
     bordercolor="#666666"
     pagecolor="#ffffff" />
  <!-- Generator: sketchtool 54.1 (76490) - https://sketchapp.com -->
  <title
     id="title2">234B0A08-5969-422F-BD0D-03E94F97F0DE</title>
  <desc
     id="desc4">Created with sketchtool.</desc>
  <g
     transform="matrix(2.1581817,0,0,2.2066643,1.0695425,1.1033322)"
     fill-rule="evenodd"
     fill="none"
     stroke-width="1"
     stroke="none"
     id="Page-1">
    <g
       stroke="#000000"
       fill="#ffffff"
       transform="translate(-1616,-29)"
       id="Desktop-HD-_Investigation-Table_B">
      <g
         id="Header">
        <g
           transform="translate(1552,19)"
           id="icons">
          <path
             id="Icon"
             d="m 75.002498,24.85 c -2.182557,0 -3.958005,-1.727 -3.958005,-3.85 0,-2.123 1.775448,-3.85 3.958005,-3.85 2.182557,0 3.958005,1.727 3.958005,3.85 0,2.123 -1.775448,3.85 -3.958005,3.85 z m 8.402279,-2.772 c 0.04523,-0.352 0.07916,-0.704 0.07916,-1.078 0,-0.374 -0.03393,-0.726 -0.07916,-1.078 l 2.386111,-1.815 c 0.214863,-0.165 0.271406,-0.462 0.135703,-0.704 l -2.261717,-3.806 c -0.135703,-0.242 -0.441035,-0.33 -0.689824,-0.242 l -2.815837,1.1 c -0.588047,-0.44 -1.221328,-0.803 -1.911151,-1.078 L 77.818336,10.462 C 77.78441,10.198 77.54693,10 77.264215,10 h -4.523434 c -0.282715,0 -0.520195,0.198 -0.554121,0.462 l -0.429726,2.915 c -0.689824,0.275 -1.323105,0.649 -1.911151,1.078 l -2.815838,-1.1 c -0.260097,-0.099 -0.554121,0 -0.689824,0.242 l -2.261717,3.806 c -0.147011,0.242 -0.07916,0.539 0.135703,0.704 l 2.386112,1.815 c -0.04523,0.352 -0.07916,0.715 -0.07916,1.078 0,0.363 0.03393,0.726 0.07916,1.078 l -2.386112,1.815 c -0.214863,0.165 -0.271406,0.462 -0.135703,0.704 l 2.261717,3.806 c 0.135703,0.242 0.441035,0.33 0.689824,0.242 l 2.815838,-1.1 c 0.588046,0.44 1.221327,0.803 1.911151,1.078 l 0.429726,2.915 C 72.220586,31.802 72.458066,32 72.740781,32 h 4.523434 c 0.282715,0 0.520195,-0.198 0.554121,-0.462 l 0.429726,-2.915 c 0.689823,-0.275 1.323104,-0.649 1.911151,-1.078 l 2.815837,1.1 c 0.260098,0.099 0.554121,0 0.689824,-0.242 l 2.261717,-3.806 c 0.135703,-0.242 0.07916,-0.539 -0.135703,-0.704 z" />
        </g>
      </g>
    </g>
  </g>
</svg>
