<?xml version="1.0" encoding="UTF-8" standalone="no"?>
<svg
   xmlns:dc="http://purl.org/dc/elements/1.1/"
   xmlns:cc="http://creativecommons.org/ns#"
   xmlns:rdf="http://www.w3.org/1999/02/22-rdf-syntax-ns#"
   xmlns:svg="http://www.w3.org/2000/svg"
   xmlns="http://www.w3.org/2000/svg"
   xmlns:sodipodi="http://sodipodi.sourceforge.net/DTD/sodipodi-0.dtd"
   xmlns:inkscape="http://www.inkscape.org/namespaces/inkscape"
   inkscape:version="1.0 (4035a4fb49, 2020-05-01)"
   sodipodi:docname="star-empty.svg"
   id="svg14"
   version="1.1"
   viewBox="0 0 25 25"
   height="25px"
   width="25px">
  <metadata
     id="metadata18">
    <rdf:RDF>
      <cc:Work
         rdf:about="">
        <dc:format>image/svg+xml</dc:format>
        <dc:type
           rdf:resource="http://purl.org/dc/dcmitype/StillImage" />
      </cc:Work>
    </rdf:RDF>
  </metadata>
  <sodipodi:namedview
     inkscape:current-layer="svg14"
     inkscape:window-maximized="1"
     inkscape:window-y="-8"
     inkscape:window-x="-8"
     inkscape:cy="11.381509"
     inkscape:cx="15.590544"
     inkscape:zoom="16.84"
     showgrid="false"
     id="namedview16"
     inkscape:window-height="1009"
     inkscape:window-width="1920"
     inkscape:pageshadow="2"
     inkscape:pageopacity="0"
     guidetolerance="10"
     gridtolerance="10"
     objecttolerance="10"
     borderopacity="1"
     bordercolor="#666666"
     pagecolor="#ffffff" />
  <!-- Generator: Sketch 42 (36781) - http://www.bohemiancoding.com/sketch -->
  <title
     id="title2">star</title>
  <desc
     id="desc4">Created with Sketch.</desc>
  <defs
     id="defs6" />
  <polygon
     id="Fill-1"
     fill="#ffcc00"
     points="17.5,15.0002 24.5,9.5002 16,9.5002 12.5,0.5002 9,9.5002 0.5,9.5002 7.5,15.0002 4.5,24.4992 12.5,18.5002 20.5,24.4992 "
     style="fill-rule:evenodd;stroke:none;stroke-width:1;fill:#ffffff;fill-opacity:1" />
  <path
     d="M 4.8,24.9 C 4.4110804,25.19169 3.8767795,24.81295 4.0232252,24.349382 l 0.828,-2.621 C 4.8826718,21.628839 4.9444864,21.541635 5.028,21.479 L 12.2,16.1 c 0.177778,-0.133333 0.422222,-0.133333 0.6,0 l 7.172,5.379 c 0.08351,0.06264 0.145328,0.149839 0.176775,0.249382 l 0.828,2.621 C 21.12322,24.81295 20.58892,25.19169 20.2,24.9 l -7.7,-5.775 z"
     id="Stroke-4"
     fill="#000000"
     fill-rule="nonzero"
     opacity="0.24"
     style="stroke:none;stroke-width:1" />
  <polygon
     id="Stroke-7"
     stroke="#000000"
     stroke-linecap="round"
     stroke-linejoin="round"
     points="4.5,24.5 7.5,15 0.5,9.5 9,9.5 12.5,0.5 16,9.5 24.5,9.5 17.5,15 20.5,24.5 12.5,18.5 "
     style="fill:none;fill-rule:evenodd;stroke-width:1" />
</svg>
